<svg width="144" height="13" viewBox="0 0 144 13" fill="none" xmlns="http://www.w3.org/2000/svg">
<path d="M10.8936 12L10.8776 4.576L7.19756 10.72H6.26956L2.58956 4.672V12H0.605563V0.799999H2.31756L6.76556 8.224L11.1336 0.799999H12.8456L12.8616 12H10.8936ZM23.1508 9.408H17.5508L16.4468 12H14.3028L19.3428 0.799999H21.3908L26.4468 12H24.2708L23.1508 9.408ZM22.4628 7.776L20.3508 2.88L18.2548 7.776H22.4628ZM27.8712 0.799999H29.9512V12H27.8712V0.799999ZM36.4526 12.16C35.5886 12.16 34.7512 12.0373 33.9406 11.792C33.1406 11.5467 32.5059 11.2213 32.0366 10.816L32.7566 9.2C33.2152 9.56267 33.7752 9.86133 34.4366 10.096C35.1086 10.32 35.7806 10.432 36.4526 10.432C37.2846 10.432 37.9032 10.2987 38.3086 10.032C38.7246 9.76533 38.9326 9.41333 38.9326 8.976C38.9326 8.656 38.8152 8.39467 38.5806 8.192C38.3566 7.97867 38.0686 7.81333 37.7166 7.696C37.3646 7.57867 36.8846 7.44533 36.2766 7.296C35.4232 7.09333 34.7299 6.89067 34.1966 6.688C33.6739 6.48533 33.2206 6.17067 32.8366 5.744C32.4632 5.30667 32.2766 4.72 32.2766 3.984C32.2766 3.36533 32.4419 2.80533 32.7726 2.304C33.1139 1.792 33.6206 1.38667 34.2926 1.088C34.9752 0.789333 35.8072 0.639999 36.7886 0.639999C37.4712 0.639999 38.1432 0.725333 38.8046 0.896C39.4659 1.06667 40.0366 1.312 40.5166 1.632L39.8606 3.248C39.3699 2.96 38.8579 2.74133 38.3246 2.592C37.7912 2.44267 37.2739 2.368 36.7726 2.368C35.9512 2.368 35.3379 2.50667 34.9326 2.784C34.5379 3.06133 34.3406 3.42933 34.3406 3.888C34.3406 4.208 34.4526 4.46933 34.6766 4.672C34.9112 4.87467 35.2046 5.03467 35.5566 5.152C35.9086 5.26933 36.3886 5.40267 36.9966 5.552C37.8286 5.744 38.5112 5.94667 39.0446 6.16C39.5779 6.36267 40.0312 6.67733 40.4046 7.104C40.7886 7.53067 40.9806 8.10667 40.9806 8.832C40.9806 9.45067 40.8099 10.0107 40.4686 10.512C40.1379 11.0133 39.6312 11.4133 38.9486 11.712C38.2659 12.0107 37.4339 12.16 36.4526 12.16ZM45.1588 2.56H41.4468V0.799999H50.9508V2.56H47.2388V12H45.1588V2.56ZM59.8398 12L57.5518 8.72C57.4558 8.73067 57.3118 8.736 57.1198 8.736H54.5918V12H52.5118V0.799999H57.1198C58.0905 0.799999 58.9331 0.959999 59.6478 1.28C60.3731 1.6 60.9278 2.05867 61.3118 2.656C61.6958 3.25333 61.8878 3.96267 61.8878 4.784C61.8878 5.62667 61.6798 6.352 61.2638 6.96C60.8585 7.568 60.2718 8.02133 59.5038 8.32L62.0798 12H59.8398ZM59.7918 4.784C59.7918 4.06933 59.5571 3.52 59.0878 3.136C58.6185 2.752 57.9305 2.56 57.0238 2.56H54.5918V7.024H57.0238C57.9305 7.024 58.6185 6.832 59.0878 6.448C59.5571 6.05333 59.7918 5.49867 59.7918 4.784ZM71.4789 9.408H65.8789L64.7749 12H62.6309L67.6709 0.799999H69.7189L74.7749 12H72.5989L71.4789 9.408ZM70.7909 7.776L68.6789 2.88L66.5829 7.776H70.7909ZM85.8532 12.16C84.7119 12.16 83.6825 11.9147 82.7652 11.424C81.8479 10.9227 81.1279 10.2347 80.6052 9.36C80.0825 8.47467 79.8212 7.488 79.8212 6.4C79.8212 5.312 80.0825 4.33067 80.6052 3.456C81.1279 2.57067 81.8479 1.88267 82.7652 1.392C83.6825 0.890666 84.7119 0.639999 85.8532 0.639999C86.9945 0.639999 88.0239 0.890666 88.9412 1.392C89.8585 1.88267 90.5785 2.56533 91.1012 3.44C91.6239 4.31467 91.8852 5.30133 91.8852 6.4C91.8852 7.49867 91.6239 8.48533 91.1012 9.36C90.5785 10.2347 89.8585 10.9227 88.9412 11.424C88.0239 11.9147 86.9945 12.16 85.8532 12.16ZM85.8532 10.336C86.5999 10.336 87.2719 10.1707 87.8692 9.84C88.4665 9.49867 88.9359 9.02933 89.2772 8.432C89.6185 7.824 89.7892 7.14667 89.7892 6.4C89.7892 5.65333 89.6185 4.98133 89.2772 4.384C88.9359 3.776 88.4665 3.30667 87.8692 2.976C87.2719 2.63467 86.5999 2.464 85.8532 2.464C85.1065 2.464 84.4345 2.63467 83.8372 2.976C83.2399 3.30667 82.7705 3.776 82.4292 4.384C82.0879 4.98133 81.9172 5.65333 81.9172 6.4C81.9172 7.14667 82.0879 7.824 82.4292 8.432C82.7705 9.02933 83.2399 9.49867 83.8372 9.84C84.4345 10.1707 85.1065 10.336 85.8532 10.336ZM104.042 0.799999V12H102.33L96.1539 4.416V12H94.0899V0.799999H95.8019L101.978 8.384V0.799999H104.042ZM107.043 0.799999H109.123V10.24H114.979V12H107.043V0.799999ZM116.621 0.799999H118.701V12H116.621V0.799999ZM131.683 0.799999V12H129.971L123.795 4.416V12H121.731V0.799999H123.443L129.619 8.384V0.799999H131.683ZM143.084 10.256V12H134.684V0.799999H142.86V2.544H136.764V5.456H142.172V7.168H136.764V10.256H143.084Z" fill="#373737"/>
</svg>
